<svg xmlns="http://www.w3.org/2000/svg" xmlns:xlink="http://www.w3.org/1999/xlink" width="256" height="256" version="1.1" viewBox="0 0 256 256"><title>gradio-logo</title><g id="gradio-logo" fill="none" fill-rule="evenodd" stroke="none" stroke-width="1"><g id="Path" fill="#FF7C00" fill-rule="nonzero" transform="translate(0.000000, 2.000000)"><polygon fill-opacity=".75" points="129 0 256 70.136 256 111 129 40.864"/><polygon points="256 70 128 140.068 128 181 256 110.932"/><polygon fill-opacity=".75" points="0 70 128 140.067 128 181 0 110.933"/><polygon points="128 0 0 70.067 0 111 128 40.933"/><polygon fill-opacity=".75" points="129 71 256 141.136 256 182 129 111.864"/><polygon points="256 141 128 211.067 128 252 256 181.932"/><polygon fill-opacity=".75" points="0 141 128 211.067 128 252 0 181.932"/><polygon points="128 71 0 141.067 0 182 128 111.933"/></g></g></svg>