<svg xmlns="http://www.w3.org/2000/svg" xmlns:xlink="http://www.w3.org/1999/xlink" width="512" height="448" version="1.1" viewBox="0 0 512 448"><title>two-columns</title><g id="Page-1" fill="none" fill-rule="evenodd" stroke="none" stroke-width="1"><g id="Artboard" fill="#062AAA" fill-rule="nonzero" transform="translate(-757.000000, -43.000000)"><g id="table-columns-solid" transform="translate(757.000000, 43.000000)"><path id="Shape" d="M0,64 C0,28.7 28.7,0 64,0 L448,0 C483.3,0 512,28.7 512,64 L512,384 C512,419.3 483.3,448 448,448 L64,448 C28.7,448 0,419.3 0,384 L0,64 Z M64,128 L64,384 L224,384 L224,128 L64,128 Z M448,128 L288,128 L288,384 L448,384 L448,128 Z"/></g></g></g></svg>